<svg width="36" height="36" viewBox="0 0 36 36" fill="none" xmlns="http://www.w3.org/2000/svg">
<g clip-path="url(#clip0_3303_279)">
<path fill-rule="evenodd" clip-rule="evenodd" d="M0 0H36V36H0V0Z" fill="#202024" fill-opacity="0.65"/>
<path fill-rule="evenodd" clip-rule="evenodd" d="M1.58463 33.1879H1.48173C1.48173 33.1365 1.45595 33.0592 1.45595 33.0332C1.45595 33.0076 1.45595 32.9563 1.37863 32.9563H1.22399V33.1879H1.14667V32.647H1.37863C1.48173 32.647 1.55886 32.6729 1.55886 32.7757C1.55886 32.853 1.53309 32.8789 1.5075 32.9043C1.53327 32.9303 1.55886 32.9561 1.55886 33.0076V33.1105C1.55886 33.1365 1.55886 33.1365 1.58463 33.1365V33.1879ZM1.48173 32.8016C1.48173 32.7243 1.43018 32.7243 1.4044 32.7243H1.22399V32.8789H1.37863C1.43018 32.8789 1.48173 32.853 1.48173 32.8016V32.8016ZM1.91969 32.9045C1.91969 32.5956 1.66214 32.3377 1.32708 32.3377C1.01799 32.3377 0.760254 32.5956 0.760254 32.9045C0.760254 33.2394 1.01799 33.4973 1.32708 33.4973C1.66195 33.4971 1.91969 33.2394 1.91969 32.9045ZM1.84237 32.9045C1.84237 33.188 1.61059 33.394 1.32708 33.394C1.04358 33.394 0.837574 33.1879 0.837574 32.9045C0.837574 32.647 1.04376 32.415 1.32708 32.415C1.61041 32.415 1.84237 32.647 1.84237 32.9045ZM33.5838 22.496C33.5838 23.269 33.0942 23.6292 32.2181 23.6292H30.5438V22.8562H32.2181C32.3728 22.8562 32.5016 22.8306 32.5534 22.7793C32.6047 22.7275 32.6563 22.6502 32.6563 22.5473C32.6563 22.444 32.6049 22.3411 32.5534 22.2898C32.5016 22.238 32.3987 22.2124 32.2441 22.2124C31.4457 22.1865 30.4407 22.238 30.4407 21.1046C30.4407 20.5891 30.7756 20.0223 31.6773 20.0223H33.4033V20.7953H31.8059C31.6517 20.7953 31.5484 20.7953 31.4711 20.8466C31.3938 20.924 31.3424 21.0013 31.3424 21.1301C31.3424 21.259 31.4197 21.3363 31.5226 21.3881C31.6259 21.4137 31.729 21.4394 31.8579 21.4394H32.3214C32.8109 21.4394 33.1202 21.5423 33.3264 21.7229C33.4807 21.9032 33.5838 22.1353 33.5838 22.496V22.496ZM29.951 21.7229C29.7448 21.5423 29.4355 21.4394 28.946 21.4394H28.4825C28.3538 21.4394 28.2505 21.4135 28.1476 21.3881C28.0443 21.3363 27.9674 21.259 27.9674 21.1301C27.9674 21.0013 27.993 20.924 28.0961 20.8466C28.1734 20.7953 28.2763 20.7953 28.4309 20.7953H30.0283V20.0223H28.3022C27.3746 20.0223 27.0653 20.5891 27.0653 21.1046C27.0653 22.2378 28.0703 22.1865 28.8691 22.2124C29.0233 22.2124 29.1266 22.238 29.178 22.2898C29.2293 22.3411 29.2813 22.444 29.2813 22.5473C29.2813 22.6502 29.2295 22.7275 29.178 22.7793C29.1007 22.8306 28.9978 22.8562 28.8431 22.8562H27.1684V23.6292H28.8431C29.7189 23.6292 30.2085 23.2688 30.2085 22.496C30.2085 22.1353 30.1056 21.9032 29.951 21.7229V21.7229ZM26.6531 22.8824H24.6181V22.1609H26.6018V21.4398H24.6181V20.7697H26.6531V20.0226H23.7678V23.6294H26.6531V22.8824ZM22.8401 20.203C22.5566 20.0484 22.2217 20.0224 21.7838 20.0224H19.8002V23.6292H20.6759V22.3154H21.6036C21.9125 22.3154 22.0931 22.3413 22.2219 22.47C22.3766 22.6502 22.3766 22.9595 22.3766 23.1915V23.6292H23.2265V22.9335C23.2265 22.5987 23.201 22.444 23.0979 22.2638C23.0205 22.1605 22.8663 22.0318 22.6601 21.9545C22.8917 21.8776 23.2785 21.5683 23.2785 21.0013C23.2783 20.5893 23.1236 20.3573 22.8401 20.203V20.203ZM17.945 20.0224H15.1882L14.0803 21.2077L13.024 20.0224H9.54585V23.6292H12.9726L14.0805 22.444L15.1368 23.6292H16.8116V22.4186H17.8937C18.6407 22.4186 19.3882 22.2124 19.3882 21.2077C19.388 20.2286 18.6149 20.0224 17.945 20.0224ZM22.1444 21.5169C22.0157 21.5683 21.8869 21.5683 21.7322 21.5683L20.6759 21.5943V20.7695H21.7322C21.8869 20.7695 22.0415 20.7695 22.1444 20.8468C22.2477 20.8986 22.3247 21.0015 22.3247 21.1561C22.3247 21.3107 22.2477 21.4396 22.1444 21.5169V21.5169ZM17.945 21.6972H16.8114V20.7695H17.945C18.2543 20.7695 18.4603 20.8986 18.4603 21.2077C18.4603 21.5169 18.2541 21.6972 17.945 21.6972ZM14.6214 21.8258L15.961 20.4091V23.3203L14.6214 21.8258ZM12.5345 22.8824H10.396V22.1609H12.3025V21.4398H10.396V20.7697H12.5602L13.5135 21.826L12.5345 22.8824V22.8824ZM31.1876 17.4203H29.951L28.3278 14.715V17.4203H26.5762L26.2409 16.6215H24.4375L24.1027 17.4203H23.0977C22.6855 17.4203 22.1444 17.3172 21.8355 17.0079C21.552 16.6988 21.3974 16.2866 21.3974 15.6424C21.3974 15.1014 21.4747 14.6119 21.8609 14.2255C22.1185 13.942 22.5824 13.8133 23.1748 13.8133H23.9992V14.5863H23.1748C22.8659 14.5863 22.6853 14.6378 22.5051 14.7925C22.3504 14.9471 22.2731 15.2304 22.2731 15.6169C22.2731 16.0033 22.3504 16.2868 22.5051 16.4672C22.6338 16.5959 22.8659 16.6474 23.0975 16.6474H23.4841L24.7207 13.8135H26.009L27.4517 17.2143V13.8133H28.7916L30.3116 16.3124V13.8133H31.1874V17.4203H31.1876V17.4203ZM20.9594 13.8133H20.0837V17.4203H20.9594V13.8133V13.8133ZM19.13 13.9679C18.8465 13.8133 18.5376 13.8133 18.0997 13.8133H16.1157V17.4203H16.9658V16.1062H17.8933C18.2026 16.1062 18.4088 16.132 18.5374 16.2608C18.6921 16.4412 18.6661 16.7505 18.6661 16.9565V17.4203H19.5419V16.6988C19.5419 16.3897 19.5163 16.235 19.3876 16.0546C19.3103 15.9515 19.1556 15.8227 18.9754 15.7455C19.207 15.6424 19.5938 15.3591 19.5938 14.7923C19.594 14.3801 19.4134 14.1481 19.13 13.9679ZM15.4973 16.6732H13.4877V15.9517H15.4715V15.2047H13.4877V14.5605H15.4973V13.8135H12.6118V17.4204H15.4973V16.6732ZM11.9676 13.8133H10.5506L9.4943 16.2608L8.36064 13.8133H6.96943V17.2141L5.5009 13.8133H4.21278L2.66693 17.4203H3.59441L3.92928 16.6215H5.73267L6.06754 17.4203H7.81958V14.5863L9.08192 17.4203H9.82898L11.0915 14.5863V17.4203H11.9674V13.8133H11.9676ZM25.932 15.8486L25.3392 14.4316L24.7468 15.8486H25.932ZM18.4603 15.282C18.3316 15.3593 18.2028 15.3593 18.0223 15.3593H16.9658V14.5607H18.0222C18.1768 14.5607 18.3568 14.5607 18.4601 14.6123C18.563 14.6896 18.6148 14.7927 18.6148 14.9471C18.6148 15.1016 18.5632 15.2303 18.4603 15.282V15.282ZM4.23837 15.8486L4.83097 14.4316L5.42358 15.8486H4.23837V15.8486ZM33.3778 2.50281H2.64097V15.488L3.69731 13.092H5.93868L6.24796 13.6846V13.092H8.87592L9.46853 14.3801L10.0354 13.092H18.4088C18.795 13.092 19.1299 13.1693 19.3878 13.3753V13.092H21.6807V13.3753C22.0669 13.1691 22.5564 13.092 23.1234 13.092H26.4469L26.7562 13.6846V13.092H29.2038L29.5646 13.6846V13.092H31.9604V18.1417H29.5388L29.0753 17.3689V18.1417H26.0607L25.7258 17.3173H24.9784L24.6435 18.1417H23.0721C22.4537 18.1417 21.9898 17.9871 21.6809 17.8326V18.1417H17.945V16.9823C17.945 16.8277 17.9193 16.8019 17.8162 16.8019H17.6875V18.1415H10.4733V17.4974L10.2158 18.1415H8.69569L8.43815 17.5232V18.1415H5.52667L5.21758 17.3172H4.47033L4.13546 18.1415H2.64097V33.3683H33.3778V24.1188C33.0429 24.2734 32.579 24.3507 32.1152 24.3507H29.8737V24.0414C29.6161 24.2478 29.1522 24.3507 28.7144 24.3507H21.6549V23.1915C21.6549 23.0368 21.6293 23.0368 21.5003 23.0368H21.3716V24.3507H19.0527V22.9853C18.6665 23.1655 18.2283 23.1655 17.8419 23.1655H17.5842V24.3507H14.7502L14.0805 23.5777L13.3334 24.3507H8.77283V19.3012H13.4104L14.0803 20.0738L14.8018 19.3012H17.9193C18.2797 19.3012 18.8725 19.3525 19.13 19.6101V19.3012H21.9125C22.196 19.3012 22.7372 19.3525 23.0977 19.6101V19.3012H27.2973V19.6103C27.5292 19.4041 27.9674 19.3013 28.3536 19.3013H30.6981V19.6103C30.956 19.43 31.3164 19.3013 31.7804 19.3013H33.3778V2.50281V2.50281Z" fill="white"/>
</g>
<defs>
<clipPath id="clip0_3303_279">
<rect width="36" height="36" fill="white"/>
</clipPath>
</defs>
</svg>
