<svg width="60" height="28" viewBox="0 0 60 28" fill="none" xmlns="http://www.w3.org/2000/svg">
<g clip-path="url(#clip0_3303_233)">
<path d="M12.3669 8.57719C12.9442 8.38709 13.5599 8.28571 14.1988 8.28571C16.9955 8.28571 19.3304 10.2475 19.864 12.8556L23.8281 12.0572C22.9199 7.6267 18.9532 4.29114 14.1988 4.29114C13.1084 4.29114 12.0641 4.46603 11.084 4.79046L12.3669 8.57719Z" fill="#A9A9B2"/>
<path d="M7.68948 21.2655L10.3707 18.2721C9.17506 17.2253 8.42072 15.6969 8.42072 13.9937C8.42072 12.2929 9.17506 10.7646 10.3707 9.72029L7.68948 6.72437C5.65739 8.50367 4.37451 11.1017 4.37451 13.9937C4.37451 16.8882 5.65739 19.4862 7.68948 21.2655" fill="#A9A9B2"/>
<path d="M19.864 15.1393C19.3278 17.7449 16.9955 19.7041 14.2014 19.7041C13.5599 19.7041 12.9416 19.6028 12.3669 19.4101L11.084 23.2019C12.0641 23.5238 13.1109 23.6987 14.2014 23.6987C18.9506 23.6987 22.9147 20.3682 23.8281 15.9428L19.864 15.1393Z" fill="#A9A9B2"/>
<path d="M27.2945 18.3962C27.1636 18.1884 26.9892 17.8564 26.8814 17.6105C26.2528 16.1708 26.2246 14.6805 26.7531 13.251C27.3356 11.682 28.4491 10.4831 29.8885 9.86977C31.6974 9.10178 33.6961 9.25132 35.4305 10.2677C36.5313 10.8912 37.3112 11.8544 37.9039 13.218C37.9783 13.3929 38.0451 13.5779 38.1118 13.7376L27.2945 18.3962ZM30.9071 12.1839C29.6217 12.7288 28.9597 13.9201 29.0982 15.3141L34.5377 13C33.6012 11.9152 32.385 11.5553 30.9071 12.1839V12.1839ZM35.215 17.2176C35.2124 17.2176 35.2124 17.2202 35.2124 17.2202L35.0996 17.1441C34.7737 17.6637 34.2682 18.087 33.6294 18.3608C32.4132 18.8829 31.2868 18.7486 30.476 18.0465L30.4016 18.158C30.4016 18.158 30.4016 18.1555 30.3991 18.1555L29.0187 20.1958C29.3625 20.4316 29.7294 20.6293 30.1143 20.7889C31.6383 21.415 33.1983 21.3846 34.7352 20.7256C35.8462 20.2491 36.7186 19.5242 37.3138 18.6041L35.215 17.2176ZM41.8911 6.86877V18.2087L43.6769 18.9234L42.6634 21.2604L40.6929 20.4493C40.2516 20.2592 39.9489 19.9703 39.7231 19.6433C39.505 19.3112 39.3433 18.8525 39.3433 18.2391V6.86877H41.8911ZM46.5146 15.3217C46.5146 14.3561 46.9483 13.4892 47.6307 12.9012L45.7988 10.8836C44.557 11.9684 43.7744 13.5526 43.7744 15.3167C43.7718 17.0833 44.5544 18.67 45.7937 19.7548L47.6231 17.7372C46.9431 17.1467 46.5146 16.2849 46.5146 15.3217V15.3217ZM49.768 18.5382C49.4088 18.5382 49.0599 18.4774 48.7366 18.3709L47.8617 20.9385C48.4595 21.1362 49.0984 21.2452 49.7655 21.2452C52.6648 21.2477 55.0843 19.2149 55.6462 16.5156L52.9573 15.9731C52.6519 17.4407 51.3408 18.5407 49.768 18.5382V18.5382ZM49.7757 9.39833C49.1112 9.39833 48.4723 9.50478 47.8745 9.69995L48.7417 12.2701C49.0676 12.1636 49.414 12.1053 49.7732 12.1053C51.3485 12.1078 52.6622 13.2129 52.9598 14.683L55.6488 14.1457C55.0971 11.4412 52.6776 9.40086 49.7757 9.39833V9.39833Z" fill="white"/>
</g>
<defs>
<clipPath id="clip0_3303_233">
<rect width="60" height="28" fill="white"/>
</clipPath>
</defs>
</svg>
