<svg width="73" height="32" viewBox="0 0 73 32" fill="none" xmlns="http://www.w3.org/2000/svg">
<g clip-path="url(#clip0_3306_961)">
<path d="M20.0433 0H12.4791C9.13673 0.159175 6.40468 1.51512 5.61583 4.31128C5.2045 5.76954 4.97813 7.37109 4.65648 8.88275C3.02133 16.569 1.57142 24.4671 0.00732422 32H58.8974C63.4501 32 66.5763 31.031 67.4209 27.3912C67.8133 25.7004 68.1892 23.7856 68.5647 21.928C70.0284 14.6853 71.4934 7.44311 72.9927 0H20.0433Z" fill="#822124"/>
<path d="M19.4528 11.3728C19.7692 11.1533 20.1766 10.1537 19.7112 9.73751C19.5637 9.60575 19.3172 9.56751 18.9732 9.6261C18.6541 9.68036 18.4706 9.7896 18.3459 9.96061C18.1456 10.2355 17.9618 11.0649 18.2721 11.373C18.5744 11.6729 19.2515 11.5124 19.4528 11.3728V11.3728ZM14.9512 9.73751C14.7246 11.2189 14.4693 12.6713 14.2133 14.1231C12.5695 14.1406 10.8912 14.2048 9.30577 14.0859C9.60521 12.6656 9.81997 11.1598 10.1175 9.73751H8.34643C7.71245 13.3606 7.13564 17.0415 6.42773 20.5901H8.23582C8.51936 18.7699 8.78469 16.931 9.1582 15.201C10.6998 15.1627 12.5474 15.096 14.0289 15.2382C13.7234 17.0367 13.3543 18.7708 13.0695 20.5901H14.8776C15.4587 16.9135 16.0706 13.2684 16.7964 9.73751H14.9512V9.73751ZM40.5219 12.8595C39.1151 12.2872 38.0091 13.2544 37.4963 14.1603C37.6126 13.7573 37.6605 13.2852 37.7548 12.8595H36.3526C36.0097 15.5372 35.5045 18.0511 35.0243 20.5901H36.611C36.8334 19.0831 36.9294 17.0515 37.4227 15.6098C37.8169 14.4578 38.8488 13.4763 40.3377 14.0117C40.3583 13.5867 40.4791 13.2623 40.5219 12.8595V12.8595ZM41.4073 18.769C41.2611 18.3883 41.2234 17.76 41.2599 17.2822C41.3419 16.2084 41.7304 14.9009 42.33 14.309C43.1574 13.492 44.7908 13.6273 46.0937 14.086C46.134 13.6437 46.2223 13.2492 46.2783 12.8224C44.1415 12.4709 42.1139 12.6897 41.0388 13.826C39.9862 14.9383 39.2965 17.4949 39.7841 19.1036C40.3549 20.9859 42.9146 21.0883 44.9868 20.3673C45.0785 19.9889 45.1271 19.5671 45.2082 19.178C44.0756 19.7704 41.9106 20.0784 41.4073 18.769V18.769ZM59.2295 12.8966C57.8271 12.1904 56.6596 13.3754 56.2038 14.0859C56.3336 13.7213 56.3411 13.2331 56.462 12.8594H55.06C54.6819 15.5138 54.2263 18.0901 53.6949 20.5899H55.3184C55.3286 19.5653 55.5285 18.8074 55.6872 17.8027C56.0265 15.6571 56.5248 13.3043 59.0084 14.0116C59.0905 13.6488 59.1247 13.2372 59.2295 12.8966ZM17.8293 12.8595C17.7863 12.8657 17.7892 12.9183 17.7923 12.9709C17.4427 15.6045 16.9695 18.1137 16.464 20.5899H18.0506C18.4319 17.9387 18.8686 15.3435 19.4159 12.8594L17.8293 12.8595V12.8595ZM31.7769 12.7109C30.6304 12.7999 29.6614 13.1321 28.9727 13.8631C28.1279 14.7594 27.4439 16.7412 27.6444 18.5461C27.9304 21.1209 31.1131 21.0284 33.6588 20.4044C33.7022 19.9524 33.8108 19.5661 33.8801 19.1406C32.8315 19.5359 31.0107 20.0876 29.9319 19.401C29.1175 18.8822 29.1128 17.5691 29.3784 16.4276C31.0893 16.3728 32.8676 16.3832 34.581 16.4276C34.6896 15.6186 35.0007 14.7366 34.7286 13.9375C34.3698 12.8826 33.0847 12.6093 31.7769 12.7109ZM33.2897 15.5355H29.5628C29.6808 14.6725 30.4516 13.7239 31.6662 13.6772C32.8092 13.6332 33.6275 14.0999 33.2897 15.5355V15.5355ZM25.7625 12.8595C24.4196 12.3514 22.783 12.9579 22.0734 13.5349C22.076 13.5603 22.0565 13.5638 22.0356 13.5656C22.0476 13.5554 22.0608 13.5451 22.0734 13.5349C22.0733 13.5328 22.0731 13.5306 22.0727 13.5285C22.0846 13.2805 22.1713 13.1076 22.1833 12.8595H20.8181C20.2491 16.6721 19.5745 20.378 18.8626 24.0465H20.4491C20.6788 22.6178 20.8304 21.1105 21.1503 19.7724C21.5126 21.1797 23.8786 20.9109 24.8771 20.3671C26.9369 19.245 28.5258 13.9049 25.7625 12.8595V12.8595ZM24.508 19.1406C23.6591 20.0462 21.5722 20.0326 21.4085 18.5087C21.3373 17.8457 21.5824 17.1506 21.7039 16.4647C21.8264 15.7704 21.9148 15.1043 22.0357 14.4949C22.8719 13.4665 25.3288 13.3422 25.5781 15.0523C25.7943 16.537 25.2109 18.3907 24.508 19.1406V19.1406ZM65.1331 9.51455C64.9971 10.7155 64.8153 11.8704 64.5798 12.9709C60.6878 11.73 58.3011 14.6143 58.344 18.1743C58.3525 18.8628 58.4701 19.5456 58.8973 20.0326C59.6343 20.8716 61.7436 21.0727 62.8088 20.367C63.0148 20.2305 63.2256 19.982 63.3621 19.8097C63.4648 19.6799 63.6277 19.3401 63.6574 19.4379C63.6012 19.815 63.5176 20.1645 63.51 20.5899H64.949C65.2265 16.5827 66.0838 13.1601 66.7201 9.5144H65.1332V9.51455H65.1331ZM61.591 19.7352C60.5229 19.7583 59.9918 19.0924 59.9673 17.9885C59.9248 16.055 60.7668 13.9069 62.4766 13.7143C63.2726 13.6247 63.849 13.8111 64.4322 14.0117C63.8967 16.1836 64.0899 19.6812 61.591 19.7352V19.7352ZM47.9015 12.8595C47.8235 13.3011 47.7035 13.7007 47.6064 14.1231C48.5427 13.8866 51.4581 13.1616 51.7391 14.4204C51.8323 14.8386 51.6714 15.2829 51.5545 15.6098C48.9183 15.3583 46.7696 15.7994 46.2042 17.691C45.8257 18.9581 46.2466 20.2049 47.0529 20.553C48.6059 21.2232 50.4948 20.4555 51.1487 19.401C51.0807 19.7659 51.0164 20.1349 51.0382 20.5901H52.4033C52.4179 19.2731 52.6082 18.2071 52.8092 17.022C52.9805 16.0129 53.303 15.0138 53.252 14.1231C53.1345 12.0833 49.7796 12.8048 47.9015 12.8595V12.8595ZM50.4844 19.1034C49.6668 19.9097 47.3716 20.1387 47.6064 18.2114C47.8013 16.6107 49.5317 16.2706 51.4067 16.5016C51.2674 17.3773 51.1075 18.4891 50.4844 19.1034V19.1034Z" fill="white"/>
</g>
<defs>
<clipPath id="clip0_3306_961">
<rect width="73" height="32" fill="white"/>
</clipPath>
</defs>
</svg>
